<svg xmlns="http://www.w3.org/2000/svg" viewBox="0 0 160 120" role="img" aria-label="Bird photo placeholder">
  <rect width="160" height="120" rx="12" fill="#EDE5CF"/>
  <g fill="none" stroke="#8A9BB0" stroke-width="3" stroke-linecap="round" stroke-linejoin="round">
    <path d="M52 78c0-18 12-30 28-30 12 0 20 7 23 16l19 8-19 6c-4 12-13 18-25 18-16 0-26-8-26-18z"/>
    <path d="M80 48c3-8 10-12 18-12-2 8-8 13-15 14"/>
    <circle cx="94" cy="60" r="2.5" fill="#8A9BB0"/>
    <path d="M62 96l-4 10M74 96l-4 10"/>
  </g>
  <text x="80" y="116" text-anchor="middle" font-family="Roboto, sans-serif" font-size="9" fill="#8A9BB0">photo coming soon</text>
</svg>
